<svg width="73" height="73" viewBox="0 0 73 73" fill="none" xmlns="http://www.w3.org/2000/svg">
<path fill-rule="evenodd" clip-rule="evenodd" d="M3 35.6957C3 24.2945 7.46829 16.1627 13.6629 10.8596C19.896 5.52355 27.9415 3 35.1025 3C52.1896 3 69.9258 15.4693 69.9258 35.6957C69.9258 43.8299 67.333 51.4336 63.729 56.9788C61.9277 59.7502 59.8998 61.9674 57.8629 63.4781C56.8792 64.2077 55.9141 64.7579 54.9868 65.1326C61.0535 53.2579 61.9972 42.0147 59.6552 33.1474C57.1365 23.6112 50.7557 16.7184 42.8466 15.1535C42.8114 15.1466 42.7761 15.1409 42.7405 15.1365C36.4608 14.3556 28.9043 14.7336 23.6116 18.9908C18.1757 23.3633 15.6502 31.361 18.4456 44.5555C18.5732 45.1576 19.0556 45.6206 19.6624 45.7235C20.2692 45.8263 20.8772 45.5481 21.1961 45.0217C24.3749 39.7731 27.1491 36.1987 29.9464 33.9289C29.2537 35.802 28.7546 37.6017 28.4294 39.3294C27.1494 46.1306 28.5846 51.7244 31.3629 56.1303C34.12 60.5026 38.1551 63.6399 42.0159 65.6803C44.1966 66.8328 46.3776 67.6642 48.3058 68.1665C46.0635 69.2932 43.1304 69.9364 39.7319 69.9956C34.7301 70.0826 28.9531 68.8929 23.4736 66.3792C12.5271 61.3574 3 51.1872 3 35.6957ZM56.7546 33.9135C56.9442 34.6311 57.1105 35.3679 57.2523 36.1229C56.539 35.0251 55.6785 34.0024 54.6576 33.0726C51.6686 30.3503 47.4263 28.5343 41.7952 27.8497C39.8063 27.6079 37.9515 27.6078 36.1939 27.8777C37.961 24.8928 40.2361 21.6988 43.1084 18.2899C49.2473 19.8913 54.5457 25.5498 56.7546 33.9135ZM31.3776 39.8843C31.8625 37.3078 32.7899 34.4945 34.2739 31.4372C36.4047 30.6826 38.724 30.4985 41.4331 30.8278C46.6203 31.4584 50.2237 33.092 52.6376 35.2906C55.0411 37.4797 56.3861 40.3382 56.8683 43.6543C57.8116 50.1404 55.4236 58.2501 51.2892 65.6887C49.3838 65.486 46.4832 64.648 43.4177 63.0279C39.8857 61.1613 36.3059 58.3447 33.9005 54.5301C31.5162 50.7491 30.2412 45.9228 31.3776 39.8843ZM39.5724 17.8621C36.3638 21.8362 33.9086 25.572 32.1005 29.0774C31.1212 29.5146 30.1664 30.0583 29.2279 30.7146C26.2713 32.7823 23.5466 35.9221 20.7117 40.1801C19.2578 29.9306 21.7546 24.3346 25.4919 21.3285C29.1468 18.3886 34.3747 17.5816 39.5724 17.8621ZM59.6501 65.8877C57.4749 67.501 55.1222 68.5531 52.7702 68.7158C49.7066 71.5615 44.9647 72.905 39.7841 72.9951C34.2992 73.0905 28.0788 71.7925 22.2226 69.1059C10.4977 63.7271 0 52.6462 0 35.6957C0 23.4229 4.84784 14.4569 11.7119 8.58063C18.5375 2.73732 27.2933 0 35.1025 0C53.3974 0 72.9258 13.3966 72.9258 35.6957C72.9258 44.44 70.148 52.6074 66.2444 58.6137C64.2917 61.618 62.0315 64.1215 59.6501 65.8877ZM42.491 26.0508C43.5805 26.0508 44.4638 25.1675 44.4638 24.0779C44.4638 22.9884 43.5805 22.1051 42.491 22.1051C41.4014 22.1051 40.5181 22.9884 40.5181 24.0779C40.5181 25.1675 41.4014 26.0508 42.491 26.0508Z" fill="white"/>
</svg>
