<svg width="32" height="32" viewBox="0 0 32 32" fill="none" xmlns="http://www.w3.org/2000/svg">
<path d="M30 16.5C30 16.1207 29.8492 15.7718 29.5477 15.4835L19.5509 5.45515C19.2192 5.12137 18.9025 5 18.5407 5C17.8018 5 17.2289 5.54617 17.2289 6.30475C17.2289 6.66887 17.3495 7.01781 17.5907 7.26055L20.9682 10.7197L26.0345 15.3773L22.4006 15.1497H3.32687C2.54281 15.1497 2 15.7111 2 16.5C2 17.2889 2.54281 17.8503 3.32687 17.8503H22.4006L26.0495 17.6227L20.9682 22.2803L17.5907 25.7394C17.3495 25.967 17.2289 26.3311 17.2289 26.6953C17.2289 27.4538 17.8018 28 18.5407 28C18.9025 28 19.2192 27.8635 19.5207 27.5752L29.5477 17.5165C29.8492 17.2282 30 16.8793 30 16.5Z" fill="black"/>
</svg>
