<svg width="32" height="32" viewBox="0 0 32 32" fill="none" xmlns="http://www.w3.org/2000/svg">
<path d="M19.3858 20.5456V22.5617H25.7502C29.6579 22.5617 32 20.2451 32 17.2147C32 14.6852 30.4598 12.6064 27.9777 11.6172C28.0032 6.0322 23.9173 2 18.7112 2C15.2617 2 12.8051 3.81574 11.2776 6.00716C8.38823 5.24329 4.73508 7.44723 4.67144 10.966C1.79475 11.4043 0 13.7209 0 16.6762C0 19.932 2.4821 22.5617 6.65712 22.5617H12.7287V20.5456H6.64439C3.62769 20.5456 2.04932 18.8301 2.04932 16.6762C2.04932 14.2844 3.5895 12.5063 6.28799 12.5063C6.46619 12.5063 6.52983 12.4061 6.52983 12.2433C6.52983 8.39893 9.34288 7.33453 11.965 8.08587C12.1177 8.13596 12.2068 8.11091 12.2832 7.97317C13.5179 5.8068 15.4145 4.0161 18.7112 4.0161C22.8862 4.0161 25.7757 7.27191 25.992 11.0036C26.0302 11.5671 25.992 12.2433 25.9411 12.8318C25.9284 12.9946 25.992 13.0948 26.1448 13.1199C28.4614 13.6208 29.9507 15.0483 29.9507 17.2147C29.9507 19.1431 28.5251 20.5456 25.7375 20.5456H19.3858ZM16.0636 30C16.3182 30 16.5219 29.8998 16.7892 29.6619L21.0915 25.7048C21.2951 25.5295 21.397 25.3166 21.397 25.0411C21.397 24.5403 20.9897 24.1646 20.4678 24.1646C20.2259 24.1646 19.9714 24.2773 19.7804 24.4651L17.8457 26.3685L16.9928 27.2451L17.0692 25.3792V14.6351C17.0692 14.1091 16.611 13.6583 16.0636 13.6583C15.5163 13.6583 15.0453 14.1091 15.0453 14.6351V25.3792L15.1217 27.2576L14.2689 26.3685L12.3341 24.4651C12.1432 24.2773 11.8759 24.1646 11.634 24.1646C11.0994 24.1646 10.7176 24.5403 10.7176 25.0411C10.7176 25.3166 10.8194 25.5295 11.0231 25.7048L15.3254 29.6619C15.5927 29.8998 15.7963 30 16.0636 30Z" fill="black"/>
</svg>
