<svg width="32" height="32" viewBox="0 0 32 32" fill="none" xmlns="http://www.w3.org/2000/svg">
<path d="M8.5314 31.875H24.3202C27.3977 31.875 28.929 30.314 28.929 27.2216V13.7223C28.929 11.8045 28.706 10.9719 27.5166 9.7528L19.3249 1.41237C18.195 0.25274 17.2584 0 15.5933 0H8.5314C5.46878 0 3.92261 1.57591 3.92261 4.66826V27.2216C3.92261 30.3288 5.45392 31.875 8.5314 31.875ZM8.63547 29.4814C7.10416 29.4814 6.31621 28.6637 6.31621 27.177V4.71286C6.31621 3.24102 7.10416 2.3936 8.65034 2.3936H15.2662V11.0314C15.2662 12.9046 16.2028 13.8264 18.0612 13.8264H26.5354V27.177C26.5354 28.6637 25.7475 29.4814 24.2013 29.4814H8.63547ZM18.3288 11.5814C17.7341 11.5814 17.5111 11.3436 17.5111 10.7489V2.85448L26.0745 11.5814H18.3288Z" fill="black"/>
</svg>
