<svg width="32" height="32" viewBox="0 0 32 32" fill="none" xmlns="http://www.w3.org/2000/svg">
<path fill-rule="evenodd" clip-rule="evenodd" d="M30.8772 13.1879V18.8121C30.8772 21.3733 30.876 23.2153 30.7393 24.6526C30.6042 26.0733 30.3448 26.9824 29.8995 27.7091C29.3524 28.6018 28.6018 29.3524 27.7091 29.8995C26.9824 30.3448 26.0733 30.6042 24.6526 30.7393C23.2153 30.876 21.3733 30.8772 18.8121 30.8772H13.1879C10.6267 30.8772 8.78473 30.876 7.34737 30.7393C5.92668 30.6042 5.0176 30.3448 4.29092 29.8995C3.39818 29.3524 2.64758 28.6018 2.10049 27.7091C1.65519 26.9824 1.39576 26.0733 1.26069 24.6526C1.12399 23.2153 1.12281 21.3733 1.12281 18.8121V13.1879C1.12281 10.6267 1.12399 8.78473 1.26069 7.34737C1.39576 5.92668 1.65519 5.0176 2.10049 4.29092C2.64758 3.39818 3.39818 2.64758 4.29092 2.10049C5.0176 1.65519 5.92668 1.39576 7.34737 1.26063C8.78473 1.12399 10.6267 1.12281 13.1879 1.12281H18.8121C21.3733 1.12281 23.2153 1.12399 24.6526 1.26069C26.0733 1.39576 26.9824 1.65519 27.7091 2.10049C28.6018 2.64758 29.3524 3.39818 29.8995 4.29092C30.3448 5.0176 30.6042 5.92668 30.7393 7.34737C30.876 8.78473 30.8772 10.6267 30.8772 13.1879ZM18.8121 0C23.8909 0 26.4303 0 28.2957 1.14313C29.3396 1.78279 30.2172 2.66043 30.8569 3.70425C32 5.56968 32 8.10908 32 13.1879V18.8121C32 23.8909 32 26.4303 30.8569 28.2957C30.2172 29.3396 29.3396 30.2172 28.2957 30.8568C26.4303 32 23.8909 32 18.8121 32H13.1879C8.10908 32 5.56974 32 3.70425 30.8568C2.66043 30.2172 1.78279 29.3396 1.14313 28.2957C0 26.4303 0 23.8909 0 18.8121V13.1879C0 8.10908 0 5.56968 1.14319 3.70425C1.78279 2.66043 2.66043 1.78279 3.70425 1.14313C5.56974 0 8.10908 0 13.1879 0H18.8121ZM13.0197 16.9551V24.3567H9.88542V7.6433H13.0197V14.7107L19.3357 7.6433H23.2299V7.73879L15.8453 15.7373L23.8472 24.1657V24.3567H19.9768L13.0197 16.9551Z" fill="black"/>
</svg>
