<svg width="32" height="32" viewBox="0 0 32 32" fill="none" xmlns="http://www.w3.org/2000/svg">
<path d="M25.9399 7.24422V1.25441C25.9399 0.410097 25.2549 -0.131535 24.4425 0.0277687L16.2543 1.81197C15.2347 2.03499 14.6772 2.59256 14.6772 3.48466L14.709 21.1992C14.7887 21.9798 14.4223 22.4896 13.7213 22.6329L11.1884 23.1587C8.00234 23.8277 6.50488 25.4526 6.50488 27.8581C6.50488 30.2955 8.38467 32 11.0291 32C13.3709 32 16.8755 30.2795 16.8755 25.6438V11.0675C16.8755 10.2232 17.0348 10.048 17.7836 9.88866L25.0638 8.29562C25.6054 8.18411 25.9399 7.76992 25.9399 7.24422Z" fill="black"/>
</svg>
