<svg width="32" height="32" viewBox="0 0 32 32" fill="none" xmlns="http://www.w3.org/2000/svg">
<path d="M7.50567 30.1798H11.5341C13.0712 30.1798 13.884 29.367 13.884 27.8122V3.74768C13.884 2.13984 13.0712 1.39777 11.5341 1.39777H7.50567C5.96851 1.39777 5.15576 2.21052 5.15576 3.74768V27.8122C5.15576 29.367 5.96851 30.1798 7.50567 30.1798ZM20.3507 30.1798H24.3614C25.9162 30.1798 26.7113 29.367 26.7113 27.8122V3.74768C26.7113 2.13984 25.9162 1.39777 24.3614 1.39777H20.3507C18.7958 1.39777 17.9831 2.21052 17.9831 3.74768V27.8122C17.9831 29.367 18.7958 30.1798 20.3507 30.1798Z" fill="black"/>
</svg>
