<svg width="32" height="32" viewBox="0 0 32 32" fill="none" xmlns="http://www.w3.org/2000/svg">
<path d="M2 21.3266C2 25.7838 4.90034 29.5373 8.4055 29.5373H12.7904C14.5361 30.4618 16.6529 31 19.0172 31H20.8591C22.5086 31 23.9381 30.9034 24.8866 30.6688C26.7285 30.2134 27.8832 28.9301 27.8832 27.3017C27.8832 26.9568 27.8282 26.6532 27.7457 26.3496C28.6529 25.6596 29.1615 24.6523 29.1615 23.5483C29.1615 23.0101 29.0515 22.4719 28.8591 22.0442C29.4777 21.4094 29.8213 20.4848 29.8213 19.5189C29.8213 18.8979 29.6701 18.2355 29.4089 17.7525C29.7801 17.2144 30 16.4554 30 15.655C30 13.6679 28.4467 12.0948 26.4674 12.0948H21.4502C21.1478 12.0948 20.9553 11.9568 20.9553 11.6946C20.9553 10.2594 23.2096 6.89236 23.2096 4.18767C23.2096 2.32475 21.9175 1 20.1443 1C18.8385 1 17.9588 1.67617 17.0928 3.33211C15.4845 6.43698 13.5601 9.22447 10.4261 13.0607H7.91065C4.63918 13.0607 2 16.7728 2 21.3266ZM9.73883 21.2576C9.73883 18.3735 10.3849 16.5382 12.1718 14.1233C14.1649 11.4462 16.9278 8.24471 18.921 4.27047C19.4158 3.26311 19.7457 3.04232 20.2268 3.04232C20.7904 3.04232 21.1753 3.4425 21.1753 4.18767C21.1753 6.34039 18.921 9.59706 18.921 11.6946C18.921 13.2125 20.1581 14.1371 21.7388 14.1371H26.4674C27.3196 14.1371 27.9656 14.7856 27.9656 15.655C27.9656 16.2898 27.7594 16.69 27.2509 17.2144C27.0034 17.4351 26.9759 17.7111 27.1821 17.9733C27.6082 18.6081 27.7869 18.9945 27.7869 19.5189C27.7869 20.1398 27.4983 20.678 26.8935 21.1334C26.5636 21.3956 26.4261 21.7406 26.6186 22.1546C26.9622 22.7755 27.1271 23.0653 27.1271 23.5483C27.1271 24.2521 26.6735 24.7902 25.7113 25.287C25.4089 25.4664 25.3402 25.7148 25.4639 26.0046C25.7938 26.8326 25.8351 26.9568 25.8351 27.3017C25.8351 27.9365 25.3677 28.4471 24.4055 28.6955C23.622 28.8887 22.3711 28.9715 20.8729 28.9715H19.1684C13.5052 28.9715 9.73883 25.7424 9.73883 21.2576ZM4.03436 21.3266C4.03436 17.8905 5.87629 15.103 7.91065 15.103H9.10653C8.13058 16.9522 7.70447 18.8841 7.70447 21.2162C7.70447 23.6863 8.58419 25.839 10.1649 27.4811H8.4055C6.08247 27.4811 4.03436 24.6661 4.03436 21.3266Z" fill="black"/>
</svg>
