<svg width="32" height="32" viewBox="0 0 32 32" fill="none" xmlns="http://www.w3.org/2000/svg">
<path d="M1.95801 13.2907C1.95801 19.6147 7.1034 24.7601 13.4273 24.7601C15.9282 24.7601 18.2134 23.9552 20.0962 22.6042L27.1675 29.6899C27.4981 30.0205 27.9293 30.1786 28.3892 30.1786C29.3666 30.1786 30.0421 29.4455 30.0421 28.4826C30.0421 28.0227 29.8696 27.6059 29.5678 27.304L22.5396 20.2327C24.0199 18.3068 24.8967 15.9066 24.8967 13.2907C24.8967 6.9668 19.7513 1.82141 13.4273 1.82141C7.1034 1.82141 1.95801 6.9668 1.95801 13.2907ZM4.41572 13.2907C4.41572 8.31783 8.45442 4.27913 13.4273 4.27913C18.4003 4.27913 22.439 8.31783 22.439 13.2907C22.439 18.2637 18.4003 22.3024 13.4273 22.3024C8.45442 22.3024 4.41572 18.2637 4.41572 13.2907Z" fill="black"/>
</svg>
