<svg width="32" height="32" viewBox="0 0 32 32" fill="none" xmlns="http://www.w3.org/2000/svg">
<path d="M19.3858 20.5641V22.5822H25.7502C29.6579 22.5822 32 20.2632 32 17.2298C32 14.6978 30.4598 12.617 27.9777 11.6267C28.0032 6.03621 23.9173 2 18.7112 2C15.2617 2 12.8051 3.81755 11.2776 6.01114C8.38823 5.24652 4.73508 7.45265 4.67144 10.9749C1.79475 11.4136 0 13.7326 0 16.6908C0 19.9499 2.4821 22.5822 6.65712 22.5822H12.7287V20.5641H6.64439C3.62769 20.5641 2.04932 18.8468 2.04932 16.6908C2.04932 14.2967 3.5895 12.5167 6.28799 12.5167C6.46619 12.5167 6.52983 12.4164 6.52983 12.2535C6.52983 8.40529 9.34288 7.33983 11.965 8.09192C12.1177 8.14206 12.2068 8.11699 12.2832 7.97911C13.5179 5.81058 15.4145 4.01811 18.7112 4.01811C22.8862 4.01811 25.7757 7.27716 25.992 11.0125C26.0302 11.5766 25.992 12.2535 25.9411 12.8426C25.9284 13.0056 25.992 13.1058 26.1448 13.1309C28.4614 13.6323 29.9507 15.0613 29.9507 17.2298C29.9507 19.1602 28.5251 20.5641 25.7375 20.5641H19.3858ZM16.0636 29C16.611 29 17.0692 28.5613 17.0692 28.0348V16.2772L16.9928 13.9582L17.8457 14.8482L19.7804 16.7409C19.9714 16.929 20.2259 17.0418 20.4678 17.0418C20.9897 17.0418 21.397 16.6783 21.397 16.1643C21.397 15.9011 21.2951 15.6755 21.0915 15.5L16.7892 11.539C16.5219 11.3008 16.3182 11.2131 16.0636 11.2131C15.7963 11.2131 15.5927 11.3008 15.3254 11.539L11.0231 15.5C10.8194 15.6755 10.7176 15.9011 10.7176 16.1643C10.7176 16.6783 11.0994 17.0418 11.634 17.0418C11.8759 17.0418 12.1432 16.929 12.3341 16.7409L14.2689 14.8482L15.1217 13.9582L15.0453 16.2772V28.0348C15.0453 28.5613 15.5163 29 16.0636 29Z" fill="black"/>
</svg>
